<svg width="56" height="46" viewBox="0 0 56 46" fill="none" xmlns="http://www.w3.org/2000/svg">
<g clip-path="url(#clip0_1289_18443)">
<path opacity="0.3" d="M52.9885 7.39741C52.9885 6.58559 52.6683 5.80701 52.0984 5.23296C51.5285 4.65891 50.7556 4.33641 49.9496 4.33641H22.2045L20.6682 1.2176C20.4705 0.865994 20.1881 0.570172 19.847 0.357387C19.5059 0.144603 19.1172 0.0216994 18.7166 0H4.36624C4.00804 0 3.66452 0.143331 3.41123 0.398464C3.15794 0.653596 3.01562 0.999632 3.01562 1.36044V7.31239C3.01562 7.31239 3.01562 7.31239 3.01562 7.33959C3.01562 7.3668 3.01562 7.37701 3.01562 7.39741V11.3087H52.9885V7.39741Z" fill="#0AB481"/>
<path d="M49.6104 8.61328H6.39062V11.307H49.6104V8.61328Z" fill="white"/>
<path d="M54.1985 42.9459C54.1339 43.7706 53.7662 44.5413 53.1673 45.1074C52.5685 45.6735 51.7815 45.9942 50.9604 46.0069H5.03938C4.21822 45.9942 3.43127 45.6735 2.83242 45.1074C2.23358 44.5413 1.86591 43.7706 1.80128 42.9459L0.00493859 15.5534C-0.0260568 15.1604 0.0246193 14.7653 0.153693 14.3932C0.282766 14.021 0.487416 13.6801 0.754604 13.3921C1.02179 13.1041 1.34564 12.8753 1.70549 12.7204C2.06535 12.5655 2.45331 12.4878 2.84462 12.4924H53.1551C53.5465 12.4878 53.9344 12.5655 54.2943 12.7204C54.6541 12.8753 54.978 13.1041 55.2452 13.3921C55.5123 13.6801 55.717 14.021 55.8461 14.3932C55.9751 14.7653 56.0258 15.1604 55.9948 15.5534L54.1985 42.9459Z" fill="#0AB481"/>
</g>
<defs>
<clipPath id="clip0_1289_18443">
<rect width="56" height="46" fill="white"/>
</clipPath>
</defs>
</svg>
