<svg width="108" height="106" viewBox="0 0 108 106" fill="none" xmlns="http://www.w3.org/2000/svg">
<g clip-path="url(#clip0_1289_18430)">
<g clip-path="url(#clip1_1289_18430)">
<path d="M73.7457 28.6982L77.028 21.5074C77.6751 20.1246 76.9549 18.9922 75.4312 18.9922H54.7147C53.1857 18.9922 52.4656 20.1246 53.1127 21.5074L56.3793 28.6982C56.3793 28.6982 63.0535 27.1118 73.7457 28.6982Z" fill="#0AB481"/>
<path d="M73.7465 30.7036C63.0543 29.1381 56.3958 30.7036 56.3958 30.7036C46.3089 33.4119 40 43.2796 40 52.5942C40 60.552 48.8293 67.5497 48.8293 67.5497C51.2141 69.4492 55.6705 71.0042 58.744 71.0042H71.4505C74.5032 71.0042 78.9543 69.4387 81.3652 67.5497C81.3652 67.5497 90.1997 60.552 90.1997 52.5942C90.1527 43.2796 83.8387 33.4119 73.7465 30.7036ZM75.1294 48.4196H72.7342L70.5842 55.125C70.2033 55.8765 69.8432 56.2052 69.1857 56.2157C68.5387 56.2157 68.2621 56.0174 67.7716 55.172L65.3242 48.4248H64.8024L62.1568 55.2085C61.7863 55.8347 61.3897 56.2261 60.753 56.2261H60.7165C60.059 56.2261 59.7198 55.84 59.3285 55.1355L57.1733 48.43H55.0234C54.6317 48.43 54.2561 48.2744 53.9791 47.9975C53.7022 47.7205 53.5466 47.3449 53.5466 46.9532C53.5466 46.5616 53.7022 46.186 53.9791 45.909C54.2561 45.6321 54.6317 45.4765 55.0234 45.4765H56.3801L55.7435 43.1178C55.6622 42.7456 55.7273 42.3564 55.9255 42.0309C56.1236 41.7055 56.4394 41.4688 56.8074 41.3701C57.1754 41.2714 57.5672 41.3182 57.9016 41.5008C58.236 41.6834 58.4872 41.9878 58.6031 42.3507L59.4433 45.4817H62.6421L63.6857 42.2777C63.7832 41.9788 63.9735 41.7188 64.229 41.5355C64.4844 41.3523 64.7918 41.2553 65.1061 41.2588C65.4205 41.2623 65.7256 41.366 65.9769 41.5549C66.2283 41.7438 66.4128 42.008 66.5036 42.309L67.4689 45.4817H70.4694L71.3096 42.3507C71.36 42.1633 71.4468 41.9877 71.565 41.8338C71.6833 41.6799 71.8307 41.5508 71.9988 41.4539C72.167 41.357 72.3525 41.2941 72.545 41.269C72.7374 41.2438 72.9329 41.2567 73.1203 41.3071C73.3078 41.3575 73.4834 41.4442 73.6373 41.5625C73.7912 41.6808 73.9202 41.8282 74.0172 41.9963C74.1141 42.1645 74.1769 42.35 74.2021 42.5425C74.2273 42.7349 74.2144 42.9304 74.164 43.1178L73.5273 45.4765H75.1241C75.5158 45.4765 75.8914 45.6321 76.1684 45.909C76.4453 46.186 76.6009 46.5616 76.6009 46.9532C76.6009 47.3449 76.4453 47.7205 76.1684 47.9975C75.8914 48.2744 75.5158 48.43 75.1241 48.43L75.1294 48.4196Z" fill="#0AB481"/>
</g>
<path d="M84.0352 65.0351L80.7118 64.1446C79.7251 63.9378 78.6966 64.1144 77.8354 64.6386L64.9396 73.5343C64.529 73.7858 64.0635 73.9338 63.583 73.9657C63.1026 73.9977 62.6216 73.9126 62.1813 73.7177L48.2424 66.5657C48.0615 66.5065 47.9017 66.3961 47.7821 66.248C47.6625 66.1 47.5884 65.9204 47.5686 65.7311C47.5488 65.5418 47.5841 65.3508 47.6705 65.1812C47.7568 65.0115 47.8904 64.8705 48.0551 64.7751L49.3056 63.7236C50.1168 63.1195 51.1249 62.8412 52.1311 62.9434L63.6462 64.8511C64.0813 64.9108 64.5233 64.8123 64.8918 64.5735C65.2603 64.3347 65.5308 63.9716 65.654 63.5501L66.1544 61.6827C66.2617 61.2708 66.2026 60.8332 65.9898 60.4646C65.777 60.096 65.4276 59.826 65.0172 59.713L46.8627 54.8485C45.8596 54.6359 44.8149 54.7459 43.8779 55.1626L32.9263 60.7214C33.0265 61.0277 33.0856 61.3459 33.1021 61.6677L33.2869 67.7332L33.7493 82.1808L33.7319 82.2457L61.3258 86.675C61.8191 86.7281 62.3181 86.6801 62.7922 86.5338C63.2663 86.3875 63.7056 86.1461 64.0832 85.8242L84.3944 66.5527C85.0611 65.9481 84.885 65.2628 84.0352 65.0351Z" fill="#B6E9DA"/>
<path d="M32.0755 82.2403L32.0636 81.9818L31.6131 67.7927L31.4146 61.7351C31.4104 61.663 31.4025 61.5912 31.391 61.5199C31.3361 61.1381 31.1707 60.7806 30.9152 60.4916C30.6597 60.2026 30.3253 59.9946 29.9531 59.8931C29.7692 59.8441 29.5787 59.8244 29.3886 59.8347L18.9662 60.2792C18.4437 60.2949 17.9487 60.5173 17.5901 60.8976C17.2315 61.278 17.0385 61.7852 17.0536 62.3077L17.5752 77.682L17.7416 82.8202C17.7552 83.2434 17.9047 83.651 18.1679 83.9827C18.4311 84.3144 18.794 84.5526 19.2031 84.6621C19.3868 84.7098 19.5763 84.7313 19.7661 84.726L30.1885 84.2815C30.7078 84.2564 31.1964 84.0284 31.5493 83.6467C31.9023 83.2649 32.0912 82.7599 32.0755 82.2403Z" fill="#B6E9DA"/>
</g>
<defs>
<clipPath id="clip0_1289_18430">
<rect width="89.0782" height="84.8356" fill="white" transform="translate(21.957 0.5) rotate(15)"/>
</clipPath>
<clipPath id="clip1_1289_18430">
<rect width="50.1527" height="52" fill="white" transform="translate(40 19)"/>
</clipPath>
</defs>
</svg>
