<svg width="59" height="60" viewBox="0 0 59 60" fill="none" xmlns="http://www.w3.org/2000/svg">
<g clip-path="url(#clip0_1289_18439)">
<path d="M0.617717 36.1684C-0.604928 30.4639 -0.0030188 24.5194 2.3383 19.1758L28.0148 30.3302L0.617717 36.1684Z" fill="#0AB481"/>
<path opacity="0.3" d="M30.3309 4.60156C35.5609 4.60072 40.6843 6.08019 45.1087 8.86891C49.5331 11.6576 53.0779 15.6417 55.3331 20.3605C57.5883 25.0792 58.4618 30.3399 57.8527 35.5343C57.2436 40.7287 55.1767 45.6446 51.891 49.7135C48.6053 53.7825 44.235 56.8385 39.2854 58.5279C34.3358 60.2174 29.0091 60.4714 23.9212 59.2606C18.8334 58.0499 14.1921 55.4237 10.5341 51.6859C6.87603 47.948 4.35068 43.2512 3.25 38.1383L30.3309 32.3663V4.60156Z" fill="#0AB481"/>
<path d="M27.7075 4.38727e-08C22.3291 -0.00030253 17.0668 1.56446 12.5624 4.50343C8.05794 7.4424 4.50605 11.6286 2.33984 16.5515L27.8472 27.6324L27.7075 4.38727e-08Z" fill="#0AB481"/>
</g>
<defs>
<clipPath id="clip0_1289_18439">
<rect width="58.0294" height="60" fill="white"/>
</clipPath>
</defs>
</svg>
